<svg width="666" height="662" viewBox="0 0 666 662" fill="none" xmlns="http://www.w3.org/2000/svg">
<path d="M90.5001 279C122.054 200.565 147 170 211.739 108.143C220.014 102.945 223.946 89.3382 295.432 89.3382C384.677 89.3382 361 85.5601 405 100C449 114.44 454.077 122.184 515.297 170C576.516 217.816 545.07 218.614 573 299C600.93 379.386 544.723 459.5 541 470.573C517.584 540.218 468.065 554.055 384.676 566.205C290 580 319.574 571.319 253.978 558.205C188.382 545.091 115.018 500.977 109.978 443C104.5 380 73 322.5 90.5001 279Z" stroke="#DDDDDD" stroke-width="5"/>
<g clip-path="url(#clip0)">
<path d="M137.688 178.149C200.377 121.423 236.181 104.852 321.457 77.5511C331.172 76.4977 340.661 65.982 404.943 97.2565C485.194 136.3 465.556 122.545 498.804 154.779C532.053 187.013 533.23 196.198 567.362 265.978C601.492 335.758 572.866 322.719 562.813 407.223C552.76 491.727 467.169 539.177 458.976 547.505C407.451 599.887 356.869 590.666 276.568 565.109C185.398 536.094 215.79 541.227 162.541 500.736C109.293 460.246 62.6226 388.482 83.4542 334.143C106.091 275.095 102.921 209.609 137.688 178.149Z" stroke="#DDDDDD" stroke-width="5"/>
</g>
<defs>
<clipPath id="clip0">
<rect width="502" height="490" fill="white" transform="translate(214.48 0.880127) rotate(25.9439)"/>
</clipPath>
</defs>
</svg>
